<svg xmlns="http://www.w3.org/2000/svg" viewBox="0 0 1279.76 574.68"><defs><style>.cls-1{fill:none;stroke:#000;stroke-miterlimit:10;}</style></defs><title>mapРесурс 1</title><g id="Слой_2" data-name="Слой 2"><g id="map"><g id="lines_background"><line class="cls-1" x1="1279.76" y1="0.5" y2="0.5"/><line class="cls-1" x1="1279.76" y1="9.06" y2="9.06"/><line class="cls-1" x1="1279.76" y1="17.61" y2="17.61"/><line class="cls-1" x1="1279.76" y1="26.17" y2="26.17"/><line class="cls-1" x1="1279.76" y1="34.72" y2="34.72"/><line class="cls-1" x1="1279.76" y1="43.28" y2="43.28"/><line class="cls-1" x1="1279.76" y1="51.83" y2="51.83"/><line class="cls-1" x1="1279.76" y1="60.39" y2="60.39"/><line class="cls-1" x1="1279.76" y1="68.94" y2="68.94"/><line class="cls-1" x1="1279.76" y1="77.5" y2="77.5"/><line class="cls-1" x1="1279.76" y1="86.06" y2="86.06"/><line class="cls-1" x1="1279.76" y1="94.61" y2="94.61"/><line class="cls-1" x1="1279.76" y1="103.17" y2="103.17"/><line class="cls-1" x1="1279.76" y1="111.72" y2="111.72"/><line class="cls-1" x1="1279.76" y1="120.28" y2="120.28"/><line class="cls-1" x1="1279.76" y1="128.83" y2="128.83"/><line class="cls-1" x1="1279.76" y1="137.39" y2="137.39"/><line class="cls-1" x1="1279.76" y1="145.94" y2="145.94"/><line class="cls-1" x1="1279.76" y1="154.5" y2="154.5"/><line class="cls-1" x1="1279.76" y1="163.06" y2="163.06"/><line class="cls-1" x1="1279.76" y1="171.61" y2="171.61"/><line class="cls-1" x1="1279.76" y1="180.17" y2="180.17"/><line class="cls-1" x1="1279.76" y1="188.72" y2="188.72"/><line class="cls-1" x1="1279.76" y1="197.28" y2="197.28"/><line class="cls-1" x1="1279.76" y1="205.83" y2="205.83"/><line class="cls-1" x1="1279.76" y1="214.39" y2="214.39"/><line class="cls-1" x1="1279.76" y1="222.94" y2="222.94"/><line class="cls-1" x1="1279.76" y1="231.5" y2="231.5"/><line class="cls-1" x1="1279.76" y1="240.05" y2="240.05"/><line class="cls-1" x1="1279.76" y1="248.61" y2="248.61"/><line class="cls-1" x1="1279.76" y1="257.17" y2="257.17"/><line class="cls-1" x1="1279.76" y1="265.72" y2="265.72"/><line class="cls-1" x1="1279.76" y1="274.28" y2="274.28"/><line class="cls-1" x1="1279.76" y1="282.83" y2="282.83"/><line class="cls-1" x1="1279.76" y1="291.39" y2="291.39"/><line class="cls-1" x1="1279.76" y1="299.94" y2="299.94"/><line class="cls-1" x1="1279.76" y1="308.5" y2="308.5"/><line class="cls-1" x1="1279.76" y1="317.05" y2="317.05"/><line class="cls-1" x1="1279.76" y1="325.61" y2="325.61"/><line class="cls-1" x1="1279.76" y1="334.17" y2="334.17"/><line class="cls-1" x1="1279.76" y1="342.72" y2="342.72"/><line class="cls-1" x1="1279.76" y1="351.28" y2="351.28"/><line class="cls-1" x1="1279.76" y1="359.83" y2="359.83"/><line class="cls-1" x1="1279.76" y1="368.39" y2="368.39"/><line class="cls-1" x1="1279.76" y1="376.94" y2="376.94"/><line class="cls-1" x1="1279.76" y1="385.5" y2="385.5"/><line class="cls-1" x1="1279.76" y1="394.05" y2="394.05"/><line class="cls-1" x1="1279.76" y1="402.61" y2="402.61"/><line class="cls-1" x1="1279.76" y1="411.17" y2="411.17"/><line class="cls-1" x1="1279.76" y1="419.72" y2="419.72"/><line class="cls-1" x1="1279.76" y1="428.28" y2="428.28"/><line class="cls-1" x1="1279.76" y1="436.83" y2="436.83"/><line class="cls-1" x1="1279.76" y1="445.39" y2="445.39"/><line class="cls-1" x1="1279.76" y1="453.94" y2="453.94"/><line class="cls-1" x1="1279.76" y1="462.5" y2="462.5"/><line class="cls-1" x1="1279.76" y1="471.05" y2="471.05"/><line class="cls-1" x1="1279.76" y1="479.61" y2="479.61"/><line class="cls-1" x1="1279.76" y1="488.17" y2="488.17"/><line class="cls-1" x1="1279.76" y1="496.72" y2="496.72"/><line class="cls-1" x1="1279.76" y1="505.28" y2="505.28"/><line class="cls-1" x1="1279.76" y1="513.83" y2="513.83"/><line class="cls-1" x1="1279.76" y1="522.39" y2="522.39"/><line class="cls-1" x1="1279.76" y1="531.4" y2="531.4"/><line class="cls-1" x1="1279.76" y1="539.96" y2="539.96"/><line class="cls-1" x1="1279.76" y1="548.51" y2="548.51"/><line class="cls-1" x1="1279.76" y1="557.07" y2="557.07"/><line class="cls-1" x1="1279.76" y1="565.62" y2="565.62"/><line class="cls-1" x1="1279.76" y1="574.18" y2="574.18"/></g></g></g></svg>