<svg xmlns="http://www.w3.org/2000/svg" width="48" height="48" viewBox="0 0 48 48">
    <g fill="none" fill-rule="evenodd">
        <circle cx="24" cy="24" r="24" fill="#9B9B9B"/>
        <path fill="#FFF" fill-rule="nonzero" d="M13.393 34.607c-.299-.3-.309-.779-.022-1.065L33.54 13.37c.287-.287.766-.277 1.066.022.299.3.309.779.022 1.065L14.46 34.63c-.287.287-.766.277-1.066-.022z"/>
        <path fill="#FFF" d="M13.393 13.624c.3-.299.779-.31 1.065-.023L34.63 33.772c.287.287.277.766-.022 1.065-.3.3-.779.31-1.065.023L13.37 14.69c-.287-.287-.277-.767.022-1.066z"/>
    </g>
</svg>
