<svg xmlns="http://www.w3.org/2000/svg" viewBox="0 0 174.37 39.39"><title>Ресурс 1</title><g id="Слой_2" data-name="Слой 2"><g id="screen_1"><g id="logo"><path d="M85.64,22.06h-4l-1,2.25H79.13l4.59-9.85,4.42,9.85H86.61Zm-.57-1.32L83.7,17.59l-1.44,3.15Z"/><path d="M93.6,20.36l2.87,3.95H94.76l-2.64-3.79h-.26v3.79h-1.4V15H92.1a4.12,4.12,0,0,1,2.66.69,2.54,2.54,0,0,1,.9,2,2.6,2.6,0,0,1-.57,1.69A2.45,2.45,0,0,1,93.6,20.36ZM91.86,19.3h.45c1.32,0,2-.51,2-1.52s-.65-1.42-1.94-1.42h-.5Z"/><path d="M105.12,15.54V17.2a3.86,3.86,0,0,0-2.51-1,3.16,3.16,0,0,0-2.4,1,3.45,3.45,0,0,0-1,2.5,3.37,3.37,0,0,0,1,2.46,3.23,3.23,0,0,0,2.41,1,2.93,2.93,0,0,0,1.25-.24,3.91,3.91,0,0,0,.6-.32,6.33,6.33,0,0,0,.65-.5V23.8a5.07,5.07,0,0,1-2.52.68,4.76,4.76,0,0,1-4.79-4.76A4.76,4.76,0,0,1,99,16.56a4.67,4.67,0,0,1,3.73-1.7A4.73,4.73,0,0,1,105.12,15.54Z"/><path d="M109.16,18.67h4V15h1.4v9.27h-1.4V20h-4v4.33h-1.4V15h1.4Z"/><path d="M118.79,15v9.27h-1.4V15Z"/><path d="M124.19,16.36v8h-1.4V16.36h-2.13V15h5.66v1.32Z"/><path d="M133.3,16.36h-3.72v2.22h3.61V19.9h-3.61V23h3.72v1.31h-5.12V15h5.12Z"/><path d="M142.6,15.54V17.2a3.88,3.88,0,0,0-2.51-1,3.18,3.18,0,0,0-2.41,1,3.44,3.44,0,0,0-1,2.5,3.36,3.36,0,0,0,1,2.46,3.25,3.25,0,0,0,2.41,1,3,3,0,0,0,1.26-.24,4.44,4.44,0,0,0,.6-.32,7.64,7.64,0,0,0,.65-.5V23.8a5.07,5.07,0,0,1-2.52.68,4.65,4.65,0,0,1-3.4-1.39,4.58,4.58,0,0,1-1.39-3.37,4.76,4.76,0,0,1,1.17-3.16,4.66,4.66,0,0,1,3.72-1.7A4.77,4.77,0,0,1,142.6,15.54Z"/><path d="M147.54,16.36v8h-1.4V16.36H144V15h5.65v1.32Z"/><path d="M152.92,15v5.58a3.08,3.08,0,0,0,.39,1.75,2.09,2.09,0,0,0,3.29,0,3,3,0,0,0,.39-1.75V15h1.4v6a3.44,3.44,0,1,1-6.87,0V15Z"/><path d="M164.36,20.36l2.87,3.95h-1.71l-2.65-3.79h-.25v3.79h-1.4V15h1.64a4.12,4.12,0,0,1,2.66.69,2.54,2.54,0,0,1,.9,2,2.6,2.6,0,0,1-.57,1.69A2.45,2.45,0,0,1,164.36,20.36Zm-1.74-1.06h.45c1.32,0,2-.51,2-1.52s-.64-1.42-1.93-1.42h-.5Z"/><path d="M174.36,16.36h-3.72v2.22h3.61V19.9h-3.61V23h3.72v1.31h-5.12V15h5.12Z"/><path d="M78.78,34.37A4.57,4.57,0,0,1,80.21,31a4.75,4.75,0,0,1,3.44-1.4,4.85,4.85,0,0,1,4.82,4.82A4.57,4.57,0,0,1,87,37.82a4.9,4.9,0,0,1-6.69.16A4.56,4.56,0,0,1,78.78,34.37Zm1.41,0a3.43,3.43,0,0,0,5.86,2.51,3.41,3.41,0,0,0,1-2.48,3.38,3.38,0,0,0-1-2.49,3.25,3.25,0,0,0-2.43-1,3.42,3.42,0,0,0-3.44,3.47Z"/><path d="M95,31.1H91.81v2.22h3.12v1.32H91.81v4.41h-1.4V29.78H95Z"/><path d="M103.81,31.1v7.95h-1.4V31.1h-2.13V29.78h5.65V31.1Z"/><path d="M109.19,33.41h4V29.78h1.4v9.27h-1.4V34.72h-4v4.33H107.8V29.78h1.39Z"/><path d="M122.54,31.1h-3.71v2.22h3.61v1.32h-3.61v3.1h3.71v1.31h-5.11V29.78h5.11Z"/><path d="M132.9,31.1h-3.23v2.22h3.11v1.32h-3.11v4.41h-1.4V29.78h4.63Z"/><path d="M136.69,29.78v5.58a3.08,3.08,0,0,0,.39,1.75,2.08,2.08,0,0,0,3.28,0,3,3,0,0,0,.39-1.75V29.78h1.4v6a3.43,3.43,0,1,1-6.86,0v-6Z"/><path d="M147.55,31.1v7.95h-1.4V31.1H144V29.78h5.65V31.1Z"/><path d="M152.93,29.78v5.58a3.08,3.08,0,0,0,.39,1.75,2.09,2.09,0,0,0,3.29,0,3,3,0,0,0,.39-1.75V29.78h1.4v6a3.46,3.46,0,0,1-6,2.41,3.31,3.31,0,0,1-.91-2.41v-6Z"/><path d="M164.37,35.1l2.87,3.95h-1.71l-2.65-3.79h-.25v3.79h-1.4V29.78h1.64a4.12,4.12,0,0,1,2.66.69,2.54,2.54,0,0,1,.9,2,2.6,2.6,0,0,1-.57,1.69A2.45,2.45,0,0,1,164.37,35.1ZM162.63,34h.45c1.32,0,2-.51,2-1.52s-.64-1.42-1.93-1.42h-.5Z"/><path d="M174.37,31.1h-3.72v2.22h3.61v1.32h-3.61v3.1h3.72v1.31h-5.12V29.78h5.12Z"/><rect x="20.77" y="29.03" width="10.61" height="1.28"/><rect x="52.37" y="19.71" width="10.55" height="1.28"/><rect x="51.77" y="0.05" width="17.02" height="14.72"/><path d="M17.22,39.39H0L17.31,0H34.52ZM2,38.11H16.38L32.57,1.28H18.14Z"/><rect x="36.63" y="6.61" width="18.42" height="0.97" transform="translate(9.37 35.76) rotate(-46.96)"/><rect x="51.73" y="0.74" width="1.28" height="38.65"/><polygon points="34.41 0.01 33.55 0.64 25.51 18.93 34.5 39.39 51.72 39.39 34.41 0.01"/></g></g></g></svg>