<?xml version="1.0" encoding="utf-8"?>
<!-- Generator: Adobe Illustrator 21.0.2, SVG Export Plug-In . SVG Version: 6.00 Build 0)  -->
<svg version="1.1" id="Слой_1" xmlns="http://www.w3.org/2000/svg" xmlns:xlink="http://www.w3.org/1999/xlink" x="0px" y="0px"
	 viewBox="0 0 1280 600" style="enable-background:new 0 0 1280 600;" xml:space="preserve">
<style type="text/css">
	.st0{clip-path:url(#SVGID_2_);}
	.st1{clip-path:url(#SVGID_4_);}
	.st2{fill:none;stroke:#000000;stroke-miterlimit:10;}
	.st3{clip-path:url(#SVGID_2_);fill:#FCEE42;stroke:#FFF200;stroke-miterlimit:10;}
	.st4{clip-path:url(#SVGID_2_);fill:#3B933B;}
	.st5{clip-path:url(#SVGID_2_);fill:none;stroke:#000000;stroke-miterlimit:10;}
	.st6{clip-path:url(#SVGID_2_);fill:#FFFFFF;}
	.st7{clip-path:url(#SVGID_2_);fill:#FFFFFF;stroke:#000000;stroke-miterlimit:10;}
	.st8{clip-path:url(#SVGID_6_);}
	.st9{clip-path:url(#SVGID_8_);}
</style>
<title>sssArtboard 2 copy</title>
<g>
	<defs>
		<rect id="SVGID_1_" width="1280" height="600"/>
	</defs>
	<clipPath id="SVGID_2_">
		<use xlink:href="#SVGID_1_"  style="overflow:visible;"/>
	</clipPath>
	<g class="st0">
		<defs>
			<path id="SVGID_3_" d="M1071.6,0.3v366.1C869,366.4,704.8,202.6,703.9,0.3H1071.6z"/>
		</defs>
		<clipPath id="SVGID_4_">
			<use xlink:href="#SVGID_3_"  style="overflow:visible;"/>
		</clipPath>
		<g class="st1">
			<line class="st2" x1="843.5" y1="598.9" x2="1364.6" y2="77.8"/>
			<line class="st2" x1="837.4" y1="592.9" x2="1358.5" y2="71.8"/>
			<line class="st2" x1="831.4" y1="586.8" x2="1352.5" y2="65.7"/>
			<line class="st2" x1="825.3" y1="580.8" x2="1346.4" y2="59.7"/>
			<line class="st2" x1="819.3" y1="574.7" x2="1340.4" y2="53.6"/>
			<line class="st2" x1="813.2" y1="568.7" x2="1334.3" y2="47.6"/>
			<line class="st2" x1="807.2" y1="562.6" x2="1328.3" y2="41.5"/>
			<line class="st2" x1="801.1" y1="556.6" x2="1322.2" y2="35.5"/>
			<line class="st2" x1="795.1" y1="550.5" x2="1316.2" y2="29.4"/>
			<line class="st2" x1="789" y1="544.5" x2="1310.1" y2="23.4"/>
			<line class="st2" x1="783" y1="538.4" x2="1304.1" y2="17.3"/>
			<line class="st2" x1="776.9" y1="532.4" x2="1298" y2="11.3"/>
			<line class="st2" x1="770.9" y1="526.3" x2="1292" y2="5.2"/>
			<line class="st2" x1="764.8" y1="520.3" x2="1285.9" y2="-0.8"/>
			<line class="st2" x1="758.8" y1="514.2" x2="1279.9" y2="-6.9"/>
			<line class="st2" x1="752.7" y1="508.2" x2="1273.8" y2="-12.9"/>
			<line class="st2" x1="746.7" y1="502.1" x2="1267.8" y2="-19"/>
			<line class="st2" x1="740.6" y1="496.1" x2="1261.7" y2="-25"/>
			<line class="st2" x1="734.6" y1="490" x2="1255.7" y2="-31.1"/>
			<line class="st2" x1="728.5" y1="484" x2="1249.6" y2="-37.1"/>
			<line class="st2" x1="722.5" y1="477.9" x2="1243.6" y2="-43.2"/>
			<line class="st2" x1="716.4" y1="471.9" x2="1237.5" y2="-49.2"/>
			<line class="st2" x1="710.4" y1="465.8" x2="1231.5" y2="-55.3"/>
			<line class="st2" x1="704.3" y1="459.8" x2="1225.4" y2="-61.3"/>
			<line class="st2" x1="698.3" y1="453.7" x2="1219.4" y2="-67.4"/>
			<line class="st2" x1="692.2" y1="447.7" x2="1213.3" y2="-73.4"/>
			<line class="st2" x1="686.2" y1="441.6" x2="1207.3" y2="-79.5"/>
			<line class="st2" x1="680.1" y1="435.6" x2="1201.2" y2="-85.5"/>
			<line class="st2" x1="674.1" y1="429.5" x2="1195.2" y2="-91.6"/>
			<line class="st2" x1="668" y1="423.5" x2="1189.1" y2="-97.6"/>
			<line class="st2" x1="662" y1="417.4" x2="1183.1" y2="-103.7"/>
			<line class="st2" x1="655.9" y1="411.4" x2="1177" y2="-109.7"/>
			<line class="st2" x1="649.9" y1="405.3" x2="1171" y2="-115.8"/>
			<line class="st2" x1="643.8" y1="399.3" x2="1164.9" y2="-121.8"/>
			<line class="st2" x1="637.8" y1="393.2" x2="1158.9" y2="-127.9"/>
			<line class="st2" x1="631.7" y1="387.2" x2="1152.8" y2="-133.9"/>
			<line class="st2" x1="625.7" y1="381.1" x2="1146.8" y2="-140"/>
			<line class="st2" x1="619.6" y1="375.1" x2="1140.7" y2="-146"/>
			<line class="st2" x1="613.6" y1="369" x2="1134.7" y2="-152.1"/>
			<line class="st2" x1="607.5" y1="363" x2="1128.6" y2="-158.1"/>
			<line class="st2" x1="601.5" y1="356.9" x2="1122.6" y2="-164.2"/>
			<line class="st2" x1="595.4" y1="350.9" x2="1116.5" y2="-170.2"/>
			<line class="st2" x1="589.4" y1="344.8" x2="1110.5" y2="-176.3"/>
			<line class="st2" x1="583.3" y1="338.8" x2="1104.4" y2="-182.3"/>
			<line class="st2" x1="577.3" y1="332.7" x2="1098.4" y2="-188.4"/>
			<line class="st2" x1="571.2" y1="326.7" x2="1092.3" y2="-194.4"/>
			<line class="st2" x1="565.2" y1="320.6" x2="1086.3" y2="-200.5"/>
			<line class="st2" x1="559.1" y1="314.6" x2="1080.2" y2="-206.5"/>
			<line class="st2" x1="553.1" y1="308.5" x2="1074.2" y2="-212.6"/>
			<line class="st2" x1="547" y1="302.5" x2="1068.1" y2="-218.6"/>
			<line class="st2" x1="541" y1="296.4" x2="1062.1" y2="-224.7"/>
			<line class="st2" x1="534.9" y1="290.4" x2="1056" y2="-230.7"/>
			<line class="st2" x1="528.9" y1="284.3" x2="1050" y2="-236.8"/>
			<line class="st2" x1="522.8" y1="278.3" x2="1043.9" y2="-242.8"/>
			<line class="st2" x1="516.8" y1="272.3" x2="1037.9" y2="-248.9"/>
			<line class="st2" x1="510.7" y1="266.2" x2="1031.8" y2="-254.9"/>
			<line class="st2" x1="504.7" y1="260.1" x2="1025.8" y2="-261"/>
			<line class="st2" x1="498.6" y1="254.1" x2="1019.7" y2="-267"/>
			<line class="st2" x1="492.6" y1="248.1" x2="1013.7" y2="-273.1"/>
			<line class="st2" x1="486.5" y1="242" x2="1007.6" y2="-279.1"/>
			<line class="st2" x1="480.5" y1="235.9" x2="1001.6" y2="-285.2"/>
			<line class="st2" x1="474.4" y1="229.9" x2="995.5" y2="-291.2"/>
		</g>
	</g>
	<rect x="1144.6" y="462.3" class="st3" width="135.2" height="137.7"/>
	<path class="st0" d="M761.6,600.2c0-25.4-20.6-46-46-46s-46,20.6-46,46"/>
	<rect x="845.8" y="409.4" class="st0" width="31.9" height="31.9"/>
	<rect x="1112.2" y="461.7" class="st0" width="31.9" height="31.9"/>
	<rect x="878.2" y="441.9" class="st4" width="112.2" height="112.2"/>
	<path class="st4" d="M1129.5,461.7L1129.5,461.7c-31.4,0-56.9-25.5-56.9-56.9v0c0-31.4,25.5-56.9,56.9-56.9h0
		c31.4,0,56.9,25.5,56.9,56.9v0C1186.3,436.2,1160.9,461.7,1129.5,461.7z"/>
	<polygon class="st0" points="1072.7,555.2 990.8,443.3 990.8,362.4 1072.7,252.4 	"/>
	<circle class="st0" cx="969.9" cy="182.4" r="26.1"/>
	<circle class="st5" cx="747.4" cy="297.3" r="27.7"/>
	<path class="st0" d="M876.8,465.8v43H767.4v-43H876.8 M877.8,464.8H766.4v45h111.4V464.8z"/>
	<polygon class="st0" points="877.7,509.8 877.7,554.6 766.4,509.8 	"/>
	<rect x="833.5" y="205.2" class="st6" width="44" height="111.8"/>
	<path class="st0" d="M877,205.7v110.8h-43V205.7H877 M878,204.7h-45v112.8h45V204.7z"/>
	<rect x="1137.9" y="204.7" class="st0" width="45" height="112.8"/>
	<rect x="877.6" y="318" class="st6" width="112.7" height="44"/>
	<path class="st0" d="M989.8,318.5v43H878.1v-43H989.8 M990.8,317.5H877.1v45h113.7V317.5z"/>
	<polygon class="st0" points="878,204.7 990.8,317.5 878,317.5 	"/>
	<polygon class="st5" points="990.5,553.7 1072.3,553.7 1071.4,600 874.1,600 	"/>
	<polygon class="st5" points="833,317.5 766.9,317.5 766.9,464.8 	"/>
	<path class="st0" d="M1136.4,205.7l-63.6,141.6V205.7H1136.4 M1137.9,204.7h-66.1V352L1137.9,204.7L1137.9,204.7z"/>
	<path class="st7" d="M1280,317.5h-97.7v45h97.7"/>
	<g class="st0">
		<defs>
			<rect id="SVGID_5_" x="1072.6" y="0.3" width="207.2" height="324.8"/>
		</defs>
		<clipPath id="SVGID_6_">
			<use xlink:href="#SVGID_5_"  style="overflow:visible;"/>
		</clipPath>
		<g class="st8">
			<defs>
				<path id="SVGID_7_" d="M1439.5,0.3v366.1c-202.5,0-366.8-163.8-367.7-366.1H1439.5z"/>
			</defs>
			<clipPath id="SVGID_8_">
				<use xlink:href="#SVGID_7_"  style="overflow:visible;"/>
			</clipPath>
			<g class="st9">
				<line class="st2" x1="1211.3" y1="598.9" x2="1732.5" y2="77.8"/>
				<line class="st2" x1="1205.3" y1="592.9" x2="1726.4" y2="71.8"/>
				<line class="st2" x1="1199.3" y1="586.8" x2="1720.4" y2="65.7"/>
				<line class="st2" x1="1193.2" y1="580.8" x2="1714.3" y2="59.7"/>
				<line class="st2" x1="1187.2" y1="574.7" x2="1708.3" y2="53.6"/>
				<line class="st2" x1="1181.1" y1="568.7" x2="1702.2" y2="47.6"/>
				<line class="st2" x1="1175.1" y1="562.6" x2="1696.2" y2="41.5"/>
				<line class="st2" x1="1169" y1="556.6" x2="1690.1" y2="35.5"/>
				<line class="st2" x1="1163" y1="550.5" x2="1684.1" y2="29.4"/>
				<line class="st2" x1="1156.9" y1="544.5" x2="1678" y2="23.4"/>
				<line class="st2" x1="1150.9" y1="538.4" x2="1672" y2="17.3"/>
				<line class="st2" x1="1144.8" y1="532.4" x2="1665.9" y2="11.3"/>
				<line class="st2" x1="1138.8" y1="526.3" x2="1659.9" y2="5.2"/>
				<line class="st2" x1="1132.7" y1="520.3" x2="1653.8" y2="-0.8"/>
				<line class="st2" x1="1126.7" y1="514.2" x2="1647.8" y2="-6.9"/>
				<line class="st2" x1="1120.6" y1="508.2" x2="1641.7" y2="-12.9"/>
				<line class="st2" x1="1114.6" y1="502.1" x2="1635.7" y2="-19"/>
				<line class="st2" x1="1108.5" y1="496.1" x2="1629.6" y2="-25"/>
				<line class="st2" x1="1102.5" y1="490" x2="1623.6" y2="-31.1"/>
				<line class="st2" x1="1096.4" y1="484" x2="1617.5" y2="-37.1"/>
				<line class="st2" x1="1090.4" y1="477.9" x2="1611.5" y2="-43.2"/>
				<line class="st2" x1="1084.3" y1="471.9" x2="1605.4" y2="-49.2"/>
				<line class="st2" x1="1078.3" y1="465.8" x2="1599.4" y2="-55.3"/>
				<line class="st2" x1="1072.2" y1="459.8" x2="1593.3" y2="-61.3"/>
				<line class="st2" x1="1066.2" y1="453.7" x2="1587.3" y2="-67.4"/>
				<line class="st2" x1="1060.1" y1="447.7" x2="1581.2" y2="-73.4"/>
				<line class="st2" x1="1054.1" y1="441.6" x2="1575.2" y2="-79.5"/>
				<line class="st2" x1="1048" y1="435.6" x2="1569.1" y2="-85.5"/>
				<line class="st2" x1="1042" y1="429.5" x2="1563.1" y2="-91.6"/>
				<line class="st2" x1="1035.9" y1="423.5" x2="1557" y2="-97.6"/>
				<line class="st2" x1="1029.9" y1="417.4" x2="1551" y2="-103.7"/>
				<line class="st2" x1="1023.8" y1="411.4" x2="1544.9" y2="-109.7"/>
				<line class="st2" x1="1017.8" y1="405.3" x2="1538.9" y2="-115.8"/>
				<line class="st2" x1="1011.7" y1="399.3" x2="1532.8" y2="-121.8"/>
				<line class="st2" x1="1005.7" y1="393.2" x2="1526.8" y2="-127.9"/>
				<line class="st2" x1="999.6" y1="387.2" x2="1520.7" y2="-133.9"/>
				<line class="st2" x1="993.6" y1="381.1" x2="1514.7" y2="-140"/>
				<line class="st2" x1="987.5" y1="375.1" x2="1508.6" y2="-146"/>
				<line class="st2" x1="981.5" y1="369" x2="1502.6" y2="-152.1"/>
				<line class="st2" x1="975.4" y1="363" x2="1496.5" y2="-158.1"/>
				<line class="st2" x1="969.4" y1="356.9" x2="1490.5" y2="-164.2"/>
				<line class="st2" x1="963.3" y1="350.9" x2="1484.4" y2="-170.2"/>
				<line class="st2" x1="957.3" y1="344.8" x2="1478.4" y2="-176.3"/>
				<line class="st2" x1="951.2" y1="338.8" x2="1472.3" y2="-182.3"/>
				<line class="st2" x1="945.2" y1="332.7" x2="1466.3" y2="-188.4"/>
				<line class="st2" x1="939.1" y1="326.7" x2="1460.2" y2="-194.4"/>
				<line class="st2" x1="933.1" y1="320.6" x2="1454.2" y2="-200.5"/>
				<line class="st2" x1="927" y1="314.6" x2="1448.1" y2="-206.5"/>
				<line class="st2" x1="921" y1="308.5" x2="1442.1" y2="-212.6"/>
				<line class="st2" x1="914.9" y1="302.5" x2="1436" y2="-218.6"/>
				<line class="st2" x1="908.9" y1="296.4" x2="1430" y2="-224.7"/>
				<line class="st2" x1="902.8" y1="290.4" x2="1423.9" y2="-230.7"/>
				<line class="st2" x1="896.8" y1="284.3" x2="1417.9" y2="-236.8"/>
				<line class="st2" x1="890.7" y1="278.3" x2="1411.8" y2="-242.8"/>
				<line class="st2" x1="884.7" y1="272.3" x2="1405.8" y2="-248.9"/>
				<line class="st2" x1="878.6" y1="266.2" x2="1399.7" y2="-254.9"/>
				<line class="st2" x1="872.6" y1="260.1" x2="1393.7" y2="-261"/>
				<line class="st2" x1="866.5" y1="254.1" x2="1387.6" y2="-267"/>
				<line class="st2" x1="860.5" y1="248.1" x2="1381.6" y2="-273.1"/>
				<line class="st2" x1="854.4" y1="242" x2="1375.5" y2="-279.1"/>
				<line class="st2" x1="848.4" y1="235.9" x2="1369.5" y2="-285.2"/>
				<line class="st2" x1="842.3" y1="229.9" x2="1363.4" y2="-291.2"/>
			</g>
		</g>
	</g>
	<rect x="1071.8" y="-0.2" class="st3" width="207.9" height="205.5"/>
</g>
</svg>
