<svg xmlns="http://www.w3.org/2000/svg" xmlns:xlink="http://www.w3.org/1999/xlink" viewBox="0 0 890.84 890.84"><defs><style>.cls-1,.cls-3{fill:none;}.cls-2{clip-path:url(#clip-path);}.cls-3{stroke:#000;stroke-miterlimit:10;}</style><clipPath id="clip-path"><path class="cls-1" d="M291.83,293.34h242c0,133.87-108.25,242.45-242,243Z"/></clipPath></defs><title>top_left_figure</title><g id="Слой_2" data-name="Слой 2"><g id="About_conference"><g id="circle_with_lines" data-name="circle with lines"><g class="cls-2"><line class="cls-3" x1="890.48" y1="521.45" x2="369.38" y2="0.35"/><line class="cls-3" x1="884.44" y1="527.5" x2="363.33" y2="6.4"/><line class="cls-3" x1="878.39" y1="533.55" x2="357.28" y2="12.45"/><line class="cls-3" x1="872.34" y1="539.6" x2="351.23" y2="18.5"/><line class="cls-3" x1="866.29" y1="545.65" x2="345.19" y2="24.55"/><line class="cls-3" x1="860.24" y1="551.7" x2="339.14" y2="30.6"/><line class="cls-3" x1="854.19" y1="557.75" x2="333.09" y2="36.65"/><line class="cls-3" x1="848.14" y1="563.8" x2="327.04" y2="42.7"/><line class="cls-3" x1="842.09" y1="569.85" x2="320.99" y2="48.75"/><line class="cls-3" x1="836.04" y1="575.9" x2="314.94" y2="54.8"/><line class="cls-3" x1="829.99" y1="581.95" x2="308.89" y2="60.85"/><line class="cls-3" x1="823.94" y1="588" x2="302.84" y2="66.9"/><line class="cls-3" x1="817.89" y1="594.05" x2="296.79" y2="72.95"/><line class="cls-3" x1="811.84" y1="600.1" x2="290.74" y2="79"/><line class="cls-3" x1="805.79" y1="606.15" x2="284.69" y2="85.05"/><line class="cls-3" x1="799.74" y1="612.2" x2="278.64" y2="91.1"/><line class="cls-3" x1="793.69" y1="618.25" x2="272.59" y2="97.15"/><line class="cls-3" x1="787.64" y1="624.3" x2="266.54" y2="103.2"/><line class="cls-3" x1="781.59" y1="630.35" x2="260.49" y2="109.25"/><line class="cls-3" x1="775.54" y1="636.4" x2="254.44" y2="115.3"/><line class="cls-3" x1="769.49" y1="642.45" x2="248.39" y2="121.35"/><line class="cls-3" x1="763.44" y1="648.5" x2="242.34" y2="127.4"/><line class="cls-3" x1="757.39" y1="654.55" x2="236.29" y2="133.45"/><line class="cls-3" x1="751.34" y1="660.6" x2="230.24" y2="139.5"/><line class="cls-3" x1="745.29" y1="666.65" x2="224.19" y2="145.55"/><line class="cls-3" x1="739.24" y1="672.7" x2="218.14" y2="151.6"/><line class="cls-3" x1="733.19" y1="678.75" x2="212.09" y2="157.65"/><line class="cls-3" x1="727.14" y1="684.8" x2="206.04" y2="163.69"/><line class="cls-3" x1="721.09" y1="690.85" x2="199.99" y2="169.74"/><line class="cls-3" x1="715.04" y1="696.9" x2="193.94" y2="175.79"/><line class="cls-3" x1="708.99" y1="702.95" x2="187.89" y2="181.84"/><line class="cls-3" x1="702.95" y1="708.99" x2="181.84" y2="187.89"/><line class="cls-3" x1="696.9" y1="715.04" x2="175.79" y2="193.94"/><line class="cls-3" x1="690.85" y1="721.09" x2="169.74" y2="199.99"/><line class="cls-3" x1="684.8" y1="727.14" x2="163.69" y2="206.04"/><line class="cls-3" x1="678.75" y1="733.19" x2="157.65" y2="212.09"/><line class="cls-3" x1="672.7" y1="739.24" x2="151.6" y2="218.14"/><line class="cls-3" x1="666.65" y1="745.29" x2="145.55" y2="224.19"/><line class="cls-3" x1="660.6" y1="751.34" x2="139.5" y2="230.24"/><line class="cls-3" x1="654.55" y1="757.39" x2="133.45" y2="236.29"/><line class="cls-3" x1="648.5" y1="763.44" x2="127.4" y2="242.34"/><line class="cls-3" x1="642.45" y1="769.49" x2="121.35" y2="248.39"/><line class="cls-3" x1="636.4" y1="775.54" x2="115.3" y2="254.44"/><line class="cls-3" x1="630.35" y1="781.59" x2="109.25" y2="260.49"/><line class="cls-3" x1="624.3" y1="787.64" x2="103.2" y2="266.54"/><line class="cls-3" x1="618.25" y1="793.69" x2="97.15" y2="272.59"/><line class="cls-3" x1="612.2" y1="799.74" x2="91.1" y2="278.64"/><line class="cls-3" x1="606.15" y1="805.79" x2="85.05" y2="284.69"/><line class="cls-3" x1="600.1" y1="811.84" x2="79" y2="290.74"/><line class="cls-3" x1="594.05" y1="817.89" x2="72.95" y2="296.79"/><line class="cls-3" x1="588" y1="823.94" x2="66.9" y2="302.84"/><line class="cls-3" x1="581.95" y1="829.99" x2="60.85" y2="308.89"/><line class="cls-3" x1="575.9" y1="836.04" x2="54.8" y2="314.94"/><line class="cls-3" x1="569.85" y1="842.09" x2="48.75" y2="320.99"/><line class="cls-3" x1="563.8" y1="848.14" x2="42.7" y2="327.04"/><line class="cls-3" x1="557.75" y1="854.19" x2="36.65" y2="333.09"/><line class="cls-3" x1="551.7" y1="860.24" x2="30.6" y2="339.14"/><line class="cls-3" x1="545.65" y1="866.29" x2="24.55" y2="345.19"/><line class="cls-3" x1="539.6" y1="872.34" x2="18.5" y2="351.23"/><line class="cls-3" x1="533.55" y1="878.39" x2="12.45" y2="357.28"/><line class="cls-3" x1="527.5" y1="884.44" x2="6.4" y2="363.33"/><line class="cls-3" x1="521.45" y1="890.49" x2="0.35" y2="369.38"/></g></g></g></g></svg>